<svg xmlns="http://www.w3.org/2000/svg" viewBox="0 0 675 675"><defs><style>.a{fill:#407cb6;}.b{fill:#fff;}.c{fill:#fdfdfd;}.d{fill:#253458;}.e{fill:#3c3c3c;}.f{fill:#343434;}.g{fill:#353535;}.h{fill:#232323;}.i{fill:#f8f8f8;}.j{fill:#f5f5f5;}.k{fill:#f3f3f3;}.l{fill:#f2f2f2;}.m{fill:#fbfbfb;}.n{fill:#f6f6f6;}.o{fill:#f7f7f7;}.p{fill:#fcfcfc;}.q{fill:#f4f4f4;}</style></defs><path class="a" d="M337.5,674.5A337,337,0,0,1,99.21,99.21,337,337,0,1,1,575.79,575.79,334.74,334.74,0,0,1,337.5,674.5Z"/><path class="b" d="M337.5,1a336.59,336.59,0,0,1,131,646.56,336.59,336.59,0,0,1-262-620.12A334.48,334.48,0,0,1,337.5,1m0-1C151.1,0,0,151.1,0,337.5S151.1,675,337.5,675,675,523.9,675,337.5,523.9,0,337.5,0Z"/><path class="c" d="M156.29,556.26c0-1.06-.11-2.12-.11-3.17q0-201,0-402.08c0-2.22,0-4.43,0-6.89H209.5v50.41H465.58V144.05H519v7.51q0,200.4-.08,400.8c0,1.37-.14,2.74-.22,4.11l-3,.16c-1.48,0-3-.16-4.43-.16H165.87c-2,0-4,.1-6,.16Zm217.43-259.6q0-27.2,0-54.37c0-3.87-1-4.95-4.82-4.94q-30,0-60.09.2c-5.12,0-6.33,1.3-6.62,6.32-.05.95-.08,1.91-.08,2.86q0,49.61-.07,99.2a20,20,0,0,0,.47,5.66,5.13,5.13,0,0,0,2.67,3.16,30.18,30.18,0,0,0,7.14.79c2.57.12,5.18-.23,7.72.09,5.82.73,8-1,8-6.85,0-4.77.07-9.54,0-14.31-.06-3,1.4-4.28,4.22-4.31,3.17,0,6.35,0,9.53,0,4.8,0,6.19,1.4,6.25,6.25.06,4.66.08,9.32.13,14,0,2.64.9,4.57,4,4.65,5.9.17,11.8.54,17.69.48,2.5,0,4-1.37,4-4.47C373.65,332.91,373.72,314.78,373.72,296.66ZM269,509.63c31.62,1.6,55.69-26.87,57.5-52.21,2.62-36.51-27.56-62.31-57.08-62.33-32.06,0-56.45,27-57.67,55.4C210.28,483.64,240.49,511.72,269,509.63Zm93.46-92.57-.79.37c0,4-.67,8.11.12,11.93,2.85,13.79,16.48,22.17,30.64,19.06a3.41,3.41,0,0,1,3.79,1.13c3.75,3.89,7.57,7.72,11.38,11.55q23.22,23.34,46.45,46.66c5.15,5.15,12.62,5,17.46-.17,4.62-4.94,4.12-12.51-1.29-17.94-18.1-18.19-36.15-36.42-54.41-54.45-3.15-3.11-4.4-5.91-4-10.52,1.6-17-15.2-30.62-31.4-25.92,0,.2,0,.46.14.58,2.61,2.64,5,5.63,7.91,7.82,5.14,3.82,5.82,8,3.89,14.06-1.44,4.52-3,7.42-8,7.81a25.78,25.78,0,0,0-5.74,1.65,3.49,3.49,0,0,1-4.1-1.13C370.6,425.3,366.48,421.21,362.42,417.06ZM408.69,295V258.07c0-5-1.3-6.4-6.39-6.46q-9.39-.12-18.76,0c-5.33.07-6,.79-6,6.15q0,29.72,0,59.44c0,5.09-.3,10.19.05,15.25a8.39,8.39,0,0,0,2.81,5.16c1.06.91,3.18.74,4.83.76,5.76.07,11.52,0,17.27,0,4.16,0,6.19-2.18,6.2-6.55Zm-142.25,4.17h.23c0,1.59,0,3.18,0,4.76,0,9.53-.06,19.06,0,28.59,0,3.82,1,5.1,4.64,5.3,6.72.36,13.46.66,20.19.57,6.17-.08,7.66-1.93,7.69-8.24v-44.8c0-6.14.16-12.29-.05-18.42-.19-5.45-2.22-6.65-5-6.65-7.52,0-15-.07-22.56,0-3.17,0-5,1.77-5.06,4.9C266.38,276.46,266.44,287.79,266.44,299.12Z"/><path class="d" d="M337.42,167.31H241c-4.14,0-4.15,0-4.15-4.22,0-13.36.06-26.72,0-40.08,0-2.63.79-3.47,3.44-3.45,14,.11,28,0,42,.08,1.88,0,3.77.55,5.66.57,4.63.05,5.95-1.14,7.34-5.43a78.16,78.16,0,0,1,4.12-10.63,40.66,40.66,0,0,1,29.26-22.32c13.52-2.71,26.83,0,37.51,9.45,5.71,5,10.83,11,12.28,19.13a29.51,29.51,0,0,0,1.92,5.71c1.14,2.79,4.78,4.41,8.55,4.1,3.47-.28,7-.56,10.43-.58,11.88-.07,23.75,0,35.63-.08,2.72,0,3.7.67,3.67,3.55-.14,13.36-.06,26.72-.07,40.08,0,4-.11,4.12-4.11,4.12Z"/><path class="e" d="M518.75,558H156.09c.06-.57.13-1.15.2-1.73l3.55.37a23.83,23.83,0,0,0,3.94.71q26.24.06,52.47,0,147.24,0,294.48,0a33,33,0,0,0,4.88-.71l3-.16Z"/><path class="f" d="M394.08,318.48c0-3.56-1-4.68-4.34-4.69s-5.18,1.89-5.14,5.35c0,2.76,1.5,4,4.85,4.06C393,323.26,394,322.22,394.08,318.48Zm0-48.15c.1-2.88-1.22-4.74-3.35-4.72-3.48,0-5.49,1.85-5.56,5.08s1.19,4.69,4.06,4.77C392.5,275.55,394,274,394.09,270.33Zm-3.84,28.24c2.21.33,3.86-.35,3.77-3.31-.09-3.2-1.61-4.8-4.61-4.8-2.78,0-4.06,1.46-4.13,4.12C385.2,297.54,386.41,298.57,390.25,298.57Z"/><path class="g" d="M290.36,322.32c-.07-3-1.45-4.21-4.62-4.17-3.34,0-5.58,2.11-5.51,5.11,0,2,2.87,4.41,5,4.3C288.34,327.39,290.44,325.25,290.36,322.32Zm-9.09-47.63c0,3.57,1.81,5.43,5.16,5.37,2.66,0,4-1.47,3.94-4.22-.07-3.74-1.67-5.5-5-5.47C282.45,270.39,281.25,271.65,281.27,274.69Zm3.89,19.73c-2.39-.3-3.85.64-3.88,3.45,0,3.47,1.42,5.39,4.32,5.47s4.51-1.67,4.56-4.87C290.21,295.61,289,294.56,285.16,294.42Z"/><path class="h" d="M515.61,556.63a33,33,0,0,1-4.88.71q-147.24,0-294.48,0-26.24,0-52.47,0a23.83,23.83,0,0,1-3.94-.71c2-.06,4-.16,6-.16H511.18C512.65,556.47,514.13,556.58,515.61,556.63Z"/><path class="i" d="M337.65,310.14c-3.39,0-4.67-1.09-4.68-4.08,0-3.52,1.41-5.18,4.48-5.22s4.46,1.39,4.48,5.05C342,309.39,341.21,310.12,337.65,310.14Z"/><path class="j" d="M360.94,305.35c0,3.3-1.13,4.68-4.06,4.77s-4.65-1.5-4.67-4.63,1.49-4.61,4.33-4.61C359.59,300.88,360.89,302.21,360.94,305.35Z"/><path class="k" d="M337.36,260.19c-3.16,0-4.28-1.28-4.28-4.75,0-2.85,1.29-4,4.41-4s4.43,1.54,4.42,4.79S341.08,260.22,337.36,260.19Z"/><path class="l" d="M356.05,260.19c-2.63-.1-4-1.86-3.92-5,.07-2.75,1.4-3.81,4.66-3.72,3.07.08,4.41,1.49,4.33,4.55S359.43,260.33,356.05,260.19Z"/><path class="m" d="M318.35,300.84c3.83.05,4.82,1,4.73,4.12-.09,3.6-1.46,5.14-4.55,5.13-3.4,0-4-1.07-4.12-5.83C314.36,300.91,316.61,300.93,318.35,300.84Z"/><path class="j" d="M319,251.49c2.74-.15,4.15,1.13,4.15,3.89,0,2.92-1.88,4.83-4.62,4.8s-4-1.52-4-4.46C314.48,252.62,315.69,251.48,319,251.49Z"/><path class="n" d="M341.91,280.79c-.08,3.19-1.27,4.29-4.52,4.19s-4-1.4-4.05-5.05c0-2.51,1.44-3.5,3.45-3.62C340.68,276.08,342,277.38,341.91,280.79Z"/><path class="o" d="M314.48,280.68c0-3.06,1-4,4.31-3.93,2.9.05,4.3,1.53,4.3,4.58s-1.67,3.78-4.3,3.69C315.48,284.91,314.44,283.94,314.48,280.68Z"/><path class="l" d="M360.87,280.8c0,3-1.16,4.18-4.18,4.2s-4.46-1.44-4.45-4.1,1.45-4.14,4.36-4.16C359.75,276.73,360.85,277.77,360.87,280.8Z"/><path class="p" d="M269.3,408.35a44.32,44.32,0,1,1-44.57,44.24C224.7,428.73,243.41,408.15,269.3,408.35Zm7.25,40.56c0-10.88,0-21,0-31.18a8.38,8.38,0,0,0-.81-3.93c-1.41-2.57-3.63-4.1-6.73-3.44a7.55,7.55,0,0,0-6,7.59c-.11,13.87-.17,27.74,0,41.61.08,6.05,5.59,9.43,10.57,6.56,7.69-4.43,15.23-9.11,22.72-13.86C300,449.89,301,446,299.12,443c-2.13-3.41-5.92-4.09-9.93-1.72S281.11,446.15,276.55,448.91Z"/><path class="j" d="M468.08,501.36a4.47,4.47,0,0,1-4.4,4.44,4.87,4.87,0,0,1-4.63-4.7,4.91,4.91,0,0,1,4.56-4.44A4.54,4.54,0,0,1,468.08,501.36Z"/><path class="l" d="M394.08,318.48c0,3.74-1.06,4.78-4.63,4.72-3.35-.06-4.83-1.3-4.85-4.06,0-3.46,1.78-5.37,5.14-5.35S394.12,314.92,394.08,318.48Z"/><path class="q" d="M394.09,270.33c-.14,3.68-1.59,5.22-4.85,5.13-2.87-.08-4.13-1.56-4.06-4.77s2.08-5.06,5.56-5.08C392.87,265.59,394.19,267.45,394.09,270.33Z"/><path class="n" d="M390.25,298.57c-3.84,0-5.05-1-5-4,.07-2.66,1.35-4.11,4.13-4.12,3,0,4.52,1.6,4.61,4.8C394.11,298.22,392.46,298.9,390.25,298.57Z"/><path class="q" d="M290.36,322.32c.08,2.93-2,5.07-5.13,5.24-2.13.11-5-2.32-5-4.3-.07-3,2.17-5.07,5.51-5.11C288.91,318.11,290.29,319.35,290.36,322.32Z"/><path class="j" d="M281.27,274.69c0-3,1.18-4.3,4.1-4.32,3.33,0,4.93,1.73,5,5.47.05,2.75-1.28,4.18-3.94,4.22C283.08,280.12,281.29,278.26,281.27,274.69Z"/><path class="n" d="M285.16,294.42c3.8.14,5,1.19,5,4.05-.05,3.2-1.68,4.94-4.56,4.87s-4.36-2-4.32-5.47C281.31,295.06,282.77,294.12,285.16,294.42Z"/></svg>