<svg xmlns="http://www.w3.org/2000/svg" xmlns:xlink="http://www.w3.org/1999/xlink" viewBox="0 0 658.17 658.17"><defs><style>.a{fill:url(#a);}.b{clip-path:url(#c);}.c{fill:url(#d);}.d{fill:#fdfdfd;}.e{fill:#253458;}.f{fill:#3c3c3c;}.g{fill:#343434;}.h{fill:#353535;}.i{fill:#232323;}.j{fill:#f8f8f8;}.k{fill:#f5f5f5;}.l{fill:#f3f3f3;}.m{fill:#f2f2f2;}.n{fill:#fbfbfb;}.o{fill:#f6f6f6;}.p{fill:#f7f7f7;}.q{fill:#fcfcfc;}.r{fill:#f4f4f4;}</style><linearGradient id="a" y1="329.08" x2="658.17" y2="329.08" gradientUnits="userSpaceOnUse"><stop offset="0" stop-color="#0f78bd"/><stop offset="0" stop-color="#0d6dab"/><stop offset="0.37" stop-color="#0f7dc4"/><stop offset="1" stop-color="#1296eb"/></linearGradient><clipPath id="c"><path class="a" d="M132.54,0h393.1A132.54,132.54,0,0,1,658.17,132.54v393.1A132.54,132.54,0,0,1,525.63,658.17H132.53A132.53,132.53,0,0,1,0,525.64V132.54A132.54,132.54,0,0,1,132.54,0Z"/></clipPath><linearGradient id="d" x1="-1135.42" y1="-1561.98" x2="-1132.77" y2="-1561.98" gradientTransform="matrix(248.3, 0, 0, -248.3, 281922.79, -387508.46)" xlink:href="#a"/></defs><path class="a" d="M132.54,0h393.1A132.54,132.54,0,0,1,658.17,132.54v393.1A132.54,132.54,0,0,1,525.63,658.17H132.53A132.53,132.53,0,0,1,0,525.64V132.54A132.54,132.54,0,0,1,132.54,0Z"/><g class="b"><rect class="c" width="658.17" height="658.17"/></g><path class="d" d="M144.39,559.87c0-1.06-.11-2.11-.11-3.17q0-201-.05-402.07v-6.9H197.6v50.41H453.68V147.66h53.37v7.52q0,200.4-.08,400.8c0,1.37-.15,2.74-.22,4.11l-3,.15c-1.48,0-3-.15-4.44-.15H154c-2,0-4,.1-6,.15Zm217.43-259.6V245.9c0-3.86-1-4.94-4.82-4.94q-30,0-60.09.2c-5.12,0-6.33,1.31-6.62,6.32-.05,1-.08,1.91-.08,2.86q0,49.61-.07,99.2a20,20,0,0,0,.47,5.66,5.07,5.07,0,0,0,2.67,3.16,30.18,30.18,0,0,0,7.14.8c2.57.11,5.18-.23,7.72.08,5.82.73,8-1,8-6.85,0-4.77.07-9.54,0-14.31-.06-3,1.4-4.27,4.21-4.3,3.18,0,6.36,0,9.54,0,4.8,0,6.19,1.4,6.25,6.24.06,4.66.08,9.33.13,14,0,2.64.9,4.56,4,4.65,5.9.16,11.79.53,17.69.48,2.5,0,4-1.37,4-4.48C361.75,336.52,361.82,318.39,361.82,300.27Zm-104.77,213c31.63,1.61,55.7-26.87,57.51-52.2,2.61-36.52-27.56-62.32-57.08-62.33-32.06,0-56.45,27-57.67,55.39C198.38,487.25,228.58,515.33,257.05,513.24Zm93.47-92.56-.79.37c0,4-.67,8.1.12,11.92,2.85,13.79,16.48,22.18,30.64,19.06a3.41,3.41,0,0,1,3.79,1.13c3.75,3.89,7.57,7.72,11.38,11.55q23.22,23.34,46.45,46.66c5.15,5.15,12.61,5,17.46-.16,4.62-4.95,4.11-12.52-1.29-17.95-18.1-18.18-36.15-36.42-54.41-54.44-3.15-3.11-4.4-5.91-4-10.53,1.6-17-15.2-30.62-31.4-25.92,0,.2,0,.46.14.59,2.6,2.64,5,5.62,7.9,7.81,5.15,3.82,5.83,8,3.9,14.07-1.44,4.51-3,7.41-8,7.8a26.16,26.16,0,0,0-5.74,1.65,3.48,3.48,0,0,1-4.1-1.13C358.7,428.92,354.58,424.83,350.52,420.68Zm46.27-122.12V261.68c0-5-1.31-6.4-6.4-6.46q-9.37-.12-18.75,0c-5.33.08-6,.79-6,6.15q0,29.73,0,59.45c0,5.08-.3,10.18.05,15.24a8.39,8.39,0,0,0,2.81,5.17c1.06.9,3.18.73,4.83.75,5.76.07,11.51,0,17.27,0,4.15,0,6.19-2.18,6.19-6.56Q396.8,317,396.79,298.56Zm-142.25,4.17h.22c0,1.58,0,3.17,0,4.76,0,9.53-.06,19.06,0,28.59,0,3.82,1,5.1,4.63,5.29,6.73.36,13.47.66,20.2.57,6.17-.08,7.65-1.93,7.68-8.24,0-.53,0-1.06,0-1.59V288.9c0-6.14.17-12.29-.05-18.42-.18-5.44-2.22-6.64-5-6.65-7.52,0-15-.07-22.56,0-3.17,0-5,1.77-5.06,4.89C254.48,280.07,254.54,291.4,254.54,302.73Z"/><path class="e" d="M325.52,170.93H229.13c-4.14,0-4.15,0-4.15-4.23,0-13.36.06-26.72,0-40.08,0-2.63.79-3.47,3.43-3.45,14,.11,28,0,42,.08,1.88,0,3.77.55,5.66.57,4.63.05,6-1.14,7.34-5.42a77.61,77.61,0,0,1,4.11-10.63,40.65,40.65,0,0,1,29.27-22.32c13.52-2.72,26.82,0,37.51,9.44,5.71,5,10.83,11,12.28,19.13a28.85,28.85,0,0,0,1.92,5.71c1.14,2.79,4.78,4.41,8.55,4.1,3.47-.28,6.95-.56,10.43-.58,11.88-.07,23.75,0,35.63-.08,2.72,0,3.7.68,3.67,3.55-.14,13.36-.06,26.72-.07,40.08,0,4-.11,4.12-4.11,4.12Z"/><path class="f" d="M506.85,561.61H144.19c.06-.58.13-1.16.2-1.74l3.55.37a21.6,21.6,0,0,0,3.94.71c17.49,0,35,0,52.47,0q147.24,0,294.47,0a32.94,32.94,0,0,0,4.89-.71l3-.15Z"/><path class="g" d="M382.18,322.09c0-3.56-1-4.68-4.34-4.69s-5.18,1.89-5.15,5.36c0,2.76,1.51,4,4.86,4.05C381.12,326.87,382.14,325.83,382.18,322.09Zm0-48.14c.11-2.89-1.21-4.74-3.34-4.73-3.48,0-5.49,1.85-5.56,5.08s1.18,4.69,4.06,4.77C380.6,279.16,382.05,277.62,382.18,274Zm-3.83,28.23c2.21.33,3.86-.35,3.77-3.31-.09-3.2-1.61-4.8-4.62-4.8-2.77,0-4.05,1.47-4.12,4.12C373.29,301.16,374.51,302.18,378.35,302.18Z"/><path class="h" d="M278.46,325.93c-.07-3-1.45-4.21-4.62-4.17-3.34,0-5.58,2.12-5.52,5.11,0,2,2.88,4.42,5,4.3A5,5,0,0,0,278.46,325.93Zm-9.09-47.63c0,3.57,1.81,5.44,5.16,5.38,2.66-.05,4-1.47,3.94-4.23-.07-3.74-1.67-5.49-5-5.47C270.55,274,269.35,275.26,269.37,278.3ZM273.26,298c-2.39-.31-3.85.64-3.88,3.45,0,3.46,1.42,5.38,4.32,5.46s4.51-1.67,4.56-4.87C278.31,299.22,277.06,298.17,273.26,298Z"/><path class="i" d="M503.71,560.24a32.94,32.94,0,0,1-4.89.71q-147.24.06-294.47,0c-17.49,0-35,0-52.47,0a21.6,21.6,0,0,1-3.94-.71c2,0,4-.15,6-.15h345.3C500.75,560.09,502.23,560.19,503.71,560.24Z"/><path class="j" d="M325.75,313.76c-3.39,0-4.67-1.1-4.69-4.09,0-3.52,1.41-5.18,4.49-5.22s4.46,1.4,4.48,5.06C330.05,313,329.31,313.74,325.75,313.76Z"/><path class="k" d="M349,309c.05,3.3-1.13,4.68-4,4.77s-4.65-1.5-4.67-4.62,1.49-4.62,4.33-4.62C347.69,304.5,349,305.82,349,309Z"/><path class="l" d="M325.46,263.8c-3.16,0-4.28-1.28-4.29-4.75,0-2.85,1.3-4,4.42-4s4.43,1.53,4.42,4.78S329.18,263.84,325.46,263.8Z"/><path class="m" d="M344.14,263.81c-2.62-.11-4-1.87-3.92-5,.08-2.75,1.4-3.81,4.67-3.72,3.07.09,4.41,1.5,4.33,4.56S347.53,263.94,344.14,263.81Z"/><path class="n" d="M306.44,304.46c3.84.05,4.82,1,4.74,4.11-.09,3.6-1.46,5.14-4.55,5.14-3.4,0-4.05-1.07-4.12-5.84C302.46,304.52,304.7,304.55,306.44,304.46Z"/><path class="k" d="M307.05,255.1c2.74-.15,4.15,1.14,4.15,3.89,0,2.92-1.88,4.84-4.62,4.8s-4-1.51-4-4.46S303.79,255.09,307.05,255.1Z"/><path class="o" d="M330,284.41c-.09,3.18-1.27,4.28-4.52,4.19s-4-1.41-4.05-5.06c0-2.51,1.44-3.49,3.45-3.61C328.78,279.69,330.11,281,330,284.41Z"/><path class="p" d="M302.58,284.3c0-3.06,1.05-4,4.31-3.93,2.9,0,4.3,1.52,4.3,4.58,0,2.9-1.67,3.77-4.3,3.69C303.58,288.53,302.54,287.55,302.58,284.3Z"/><path class="m" d="M349,284.41c0,3-1.16,4.19-4.18,4.2s-4.47-1.43-4.45-4.1,1.45-4.14,4.35-4.15C347.85,280.34,349,281.38,349,284.41Z"/><path class="q" d="M257.4,412a44.32,44.32,0,1,1-44.57,44.24C212.79,432.35,231.51,411.76,257.4,412Zm7.25,40.55c0-10.87,0-21,0-31.18a8.56,8.56,0,0,0-.81-3.93c-1.41-2.57-3.63-4.09-6.73-3.44a7.55,7.55,0,0,0-6,7.59c-.11,13.87-.17,27.74,0,41.61.08,6.05,5.59,9.43,10.57,6.56,7.69-4.43,15.23-9.1,22.72-13.86,3.73-2.36,4.72-6.21,2.83-9.25-2.13-3.41-5.92-4.09-9.93-1.71S269.21,449.77,264.65,452.52Z"/><path class="k" d="M456.18,505a4.47,4.47,0,0,1-4.4,4.44,4.85,4.85,0,0,1-4.63-4.69,4.91,4.91,0,0,1,4.55-4.45A4.55,4.55,0,0,1,456.18,505Z"/><path class="m" d="M382.18,322.09c0,3.74-1.06,4.78-4.63,4.72-3.35-.06-4.83-1.29-4.86-4.05,0-3.47,1.79-5.37,5.15-5.36S382.21,318.53,382.18,322.09Z"/><path class="r" d="M382.18,274c-.13,3.67-1.58,5.21-4.84,5.12-2.88-.08-4.13-1.55-4.06-4.77s2.08-5.06,5.56-5.08C381,269.21,382.29,271.06,382.18,274Z"/><path class="o" d="M378.35,302.18c-3.84,0-5.06-1-5-4,.07-2.65,1.35-4.11,4.12-4.12,3,0,4.53,1.6,4.62,4.8C382.21,301.83,380.56,302.51,378.35,302.18Z"/><path class="r" d="M278.46,325.93a5,5,0,0,1-5.13,5.24c-2.13.12-5-2.32-5-4.3-.06-3,2.18-5.07,5.52-5.11C277,321.72,278.39,323,278.46,325.93Z"/><path class="k" d="M269.37,278.3c0-3,1.18-4.3,4.1-4.32,3.33,0,4.93,1.73,5,5.47,0,2.76-1.28,4.18-3.94,4.23C271.18,283.74,269.39,281.87,269.37,278.3Z"/><path class="o" d="M273.26,298c3.8.13,5.05,1.18,5,4-.05,3.2-1.68,4.95-4.56,4.87s-4.36-2-4.32-5.46C269.41,298.68,270.87,297.73,273.26,298Z"/></svg>