<svg xmlns="http://www.w3.org/2000/svg" xmlns:xlink="http://www.w3.org/1999/xlink" viewBox="0 0 658.17 658.17"><defs><style>.a{fill:url(#a);}.b{clip-path:url(#c);}.c{fill:url(#d);}.d{fill:#fdfdfd;}.e{fill:#253458;}</style><linearGradient id="a" y1="329.08" x2="658.17" y2="329.08" gradientUnits="userSpaceOnUse"><stop offset="0" stop-color="#0f78bd"/><stop offset="0" stop-color="#0d6dab"/><stop offset="0.37" stop-color="#0f7dc4"/><stop offset="1" stop-color="#1296eb"/></linearGradient><clipPath id="c"><path class="a" d="M132.53,0h393.1A132.54,132.54,0,0,1,658.17,132.54v393.1A132.53,132.53,0,0,1,525.64,658.17H132.53A132.53,132.53,0,0,1,0,525.64V132.53A132.53,132.53,0,0,1,132.53,0Z"/></clipPath><linearGradient id="d" x1="340.53" y1="-1562.42" x2="343.18" y2="-1562.42" gradientTransform="matrix(248.3, 0, 0, -248.3, -84553.26, -387616.89)" xlink:href="#a"/></defs><path class="a" d="M132.53,0h393.1A132.54,132.54,0,0,1,658.17,132.54v393.1A132.53,132.53,0,0,1,525.64,658.17H132.53A132.53,132.53,0,0,1,0,525.64V132.53A132.53,132.53,0,0,1,132.53,0Z"/><g class="b"><rect class="c" width="658.17" height="658.17"/></g><path class="d" d="M482.34,459.72c6.94-3.45,5.06-9.53,5.74-15,.71-5.79-2.9-8.79-6.56-11.38-9.54-6.73-19.39-13-29.19-19.39-7.33-4.76-14.85-9.22-22.15-14-9.57-6.28-19.31-12.36-28.41-19.27-7.07-5.36-14.58-7-23-6-2.63.3-7.87,6.3-7.89,9q-.06,12.66-.09,25.33c0,.1-.15.2-.37.5H329.88c-4.73-21.11-13.48-40.39-28.92-56.88l4-2.43a256.79,256.79,0,0,1,43.87-21c21.08-7.83,27.45-32.84,13.23-50.4-17.45-21.54-30.05-45.54-34.6-73.15-3.68-22.32-2-44.18,9-64.39,11.21-20.6,28.43-34.16,51.44-39,32.57-6.89,61.39.08,84,25.93,11.87,13.58,17.4,29.94,19,47.7,3.18,34.53-8.81,64.55-27.74,92.44a95.22,95.22,0,0,1-8.5,11.14c-10.28,11.17-8.66,31.79,1.13,41.91A34.34,34.34,0,0,0,468.21,329a261.94,261.94,0,0,1,60.51,31.87c10.71,7.68,20.26,16.47,26.75,28.38,5.29,9.7,5.07,20.15,3.41,29.94-1.56,9.23-7.59,17.16-16,22.56-11.46,7.32-24.14,11.48-37.17,14.63-7.35,1.78-14.86,2.89-22.3,4.31Z"/><path class="d" d="M308.77,484.37c-4.83,8.33-8.79,16.09-13.64,23.25a117.45,117.45,0,0,1-58.61,45.45c-9.88,3.51-19.85,6.13-30.45,5.72a124.12,124.12,0,0,0-13.64,0c-15.58,1.12-30-3.12-44.06-9.19a113.61,113.61,0,0,1-30-19.25A120.73,120.73,0,0,1,78.7,459c-1.2-7.07.16-14.53-.36-21.77-1.1-15,2.69-29.11,8.25-42.71C91,383.7,96.72,373.37,105,364.87c7-7.17,13.74-14.73,21.63-20.77a103.58,103.58,0,0,1,49.49-21c9.95-1.33,20.24.05,30.34-.44,10.81-.52,21,1.9,30.95,5.45a119.53,119.53,0,0,1,37.27,22c13.07,11.15,23,24.72,30.56,40,3,6,4.66,12.71,7.12,19.63h-9.6c-8.18,0-16.37.2-24.54-.09a10.92,10.92,0,0,0-9.11,3.77,9.4,9.4,0,0,0-2.86,7.13c.12,18.06.06,36.11.07,54.17,0,4.36,5.23,9.65,9.55,9.66ZM183,369.31c-11.77,3.88-20.87,10.1-26.2,21.52-5.87,12.6-4.43,24.38,3.2,35.29,3.5,5,8.52,9.09,13.25,13.12,11.85,10.11,24,19.9,35.86,30a8.37,8.37,0,0,1,2.63,4.82c.72,5-1.2,7.41-7.47,10.05-5.71,2.4-11.24,1.73-16.84-.68-4.82-2.08-5.69-6-6.36-10.56-1.11-7.57-9.27-12.13-14.63-11.75-6.1.42-13.06,6.46-13.07,12.91,0,4.72,1.38,9.62,3,14.15,4.07,11.57,12.15,19.2,24.1,22.35,2.12.56,2.67,1.44,2.63,3.43-.11,4.64,0,9.27,0,13.94H210.8V511.09c14.93-3,23.7-12.47,28.09-25.91,4.44-13.6.42-25.82-9.6-35.49-8.57-8.28-18.16-15.5-27.28-23.21-5.86-5-11.88-9.77-17.47-15-4.41-4.15-3.71-9.52,1.31-12.7,4.63-2.94,9.54-4.69,15.26-3.36,5.19,1.22,10.24,5.45,11.31,10a58,58,0,0,0,2.16,7.24c2.43,6.37,7.93,6.66,13.52,6.48,5.07-.17,9.1-2.38,10.9-7.22,4.25-11.47-1.12-20.81-7.49-29.56-5.08-7-12.86-10.31-20.86-13.07V352.31H183Z"/><path class="e" d="M383.23,472H285c-1.17,0-2.52.35-3.46-.11-1.11-.54-2.64-1.79-2.65-2.75-.17-14.68-.08-29.35-.16-44,0-2.9,1.66-3,3.8-3,10.26,0,20.52,0,30.78,0h69.94v-9.56c0-7.54,0-15.07,0-22.6a3.35,3.35,0,0,1,1.1-2.58c.65-.33,2,.12,2.73.63,5.62,3.68,11.14,7.5,16.75,11.21Q421.67,411,439.54,422.7c11,7.22,22.09,14.35,33.1,21.59,3.45,2.27,3.34,3.79,0,6-15,9.9-29.93,19.91-45,29.73-8.76,5.73-17.75,11.11-26.55,16.79-4.13,2.67-8,5.78-12.11,8.44-1.38.89-3.25,1-4.9,1.51a24.16,24.16,0,0,1-.84-4.38C383.2,492.37,383.23,482.38,383.23,472Z"/></svg>