<svg xmlns="http://www.w3.org/2000/svg" viewBox="0 0 675 675"><defs><style>.a{fill:#407cb6;}.b{fill:#fff;}.c{fill:#fdfdfd;}.d{fill:#253458;}</style></defs><path class="a" d="M337.5,674.5A337,337,0,0,1,99.21,99.21,337,337,0,1,1,575.79,575.79,334.74,334.74,0,0,1,337.5,674.5Z"/><path class="b" d="M337.5,1a336.59,336.59,0,0,1,131,646.56,336.59,336.59,0,0,1-262-620.12A334.48,334.48,0,0,1,337.5,1m0-1C151.1,0,0,151.1,0,337.5S151.1,675,337.5,675,675,523.9,675,337.5,523.9,0,337.5,0Z"/><path class="c" d="M500.19,450.25c6.94-3.46,5.06-9.53,5.74-15,.71-5.79-2.9-8.78-6.56-11.37-9.54-6.74-19.39-13-29.19-19.4-7.33-4.75-14.85-9.22-22.15-14-9.57-6.28-19.31-12.36-28.41-19.27-7.07-5.36-14.58-7-23-6-2.63.3-7.87,6.31-7.89,9q-.06,12.67-.09,25.34c0,.1-.14.2-.37.49H347.73c-4.73-21.1-13.48-40.39-28.92-56.87l4-2.43a256.09,256.09,0,0,1,43.87-21c21.08-7.83,27.45-32.83,13.23-50.4-17.44-21.54-30.05-45.54-34.6-73.15-3.68-22.31-2-44.17,9-64.38,11.2-20.6,28.43-34.16,51.43-39,32.57-6.9,61.39.08,84,25.92,11.87,13.59,17.4,30,19,47.71C511.94,200.94,500,231,481,258.85a95.33,95.33,0,0,1-8.5,11.15c-10.28,11.17-8.66,31.79,1.13,41.9a34.4,34.4,0,0,0,12.41,7.63,261.56,261.56,0,0,1,60.51,31.87c10.72,7.67,20.26,16.46,26.75,28.37,5.29,9.71,5.07,20.15,3.41,29.94-1.55,9.24-7.59,17.17-16.05,22.57-11.46,7.31-24.13,11.47-37.17,14.62-7.35,1.78-14.86,2.9-22.3,4.31Z"/><path class="c" d="M326.62,474.9c-4.82,8.32-8.79,16.08-13.64,23.25a117.63,117.63,0,0,1-58.6,45.45c-9.89,3.5-19.86,6.12-30.46,5.71a124.12,124.12,0,0,0-13.64,0c-15.58,1.11-30-3.12-44.06-9.19a113.59,113.59,0,0,1-30-19.26,120.62,120.62,0,0,1-39.66-71.34c-1.2-7.07.16-14.54-.36-21.77-1.09-15,2.69-29.12,8.25-42.72,4.43-10.83,10.14-21.16,18.41-29.67,7-7.17,13.74-14.73,21.63-20.77a103.55,103.55,0,0,1,49.49-21c9.95-1.33,20.24.05,30.34-.44,10.81-.53,21,1.9,30.95,5.45a119.3,119.3,0,0,1,37.28,22c13.06,11.14,23,24.72,30.56,40,3,6,4.66,12.71,7.11,19.62h-9.59c-8.19,0-16.38.21-24.55-.09a11,11,0,0,0-9.11,3.77,9.37,9.37,0,0,0-2.85,7.14c.11,18.05.05,36.11.06,54.16,0,4.36,5.23,9.66,9.55,9.66ZM200.81,359.84c-11.78,3.88-20.88,10.1-26.21,21.52-5.87,12.59-4.43,24.37,3.2,35.29,3.51,5,8.52,9.08,13.25,13.12,11.85,10.11,24,19.9,35.86,30a8.4,8.4,0,0,1,2.63,4.82c.72,5-1.2,7.41-7.47,10.05-5.71,2.41-11.24,1.74-16.84-.68-4.82-2.07-5.68-6-6.35-10.56-1.12-7.57-9.28-12.13-14.64-11.75-6.1.43-13.06,6.47-13.07,12.91,0,4.73,1.38,9.62,3,14.15,4.07,11.57,12.15,19.2,24.1,22.35,2.13.56,2.68,1.45,2.63,3.44-.11,4.63,0,9.27,0,13.94h27.81V501.62c14.93-3,23.7-12.47,28.09-25.91,4.44-13.61.42-25.83-9.6-35.5-8.57-8.28-18.16-15.49-27.28-23.21-5.86-5-11.87-9.76-17.47-15-4.41-4.14-3.71-9.51,1.31-12.69,4.63-2.94,9.54-4.7,15.26-3.36,5.19,1.21,10.24,5.45,11.31,10a58.49,58.49,0,0,0,2.16,7.24c2.44,6.37,7.93,6.66,13.52,6.48,5.07-.17,9.1-2.39,10.9-7.23,4.25-11.47-1.12-20.81-7.49-29.56-5.08-7-12.86-10.31-20.86-13.07V342.83H200.81Z"/><path class="d" d="M401.08,462.52H302.83c-1.17,0-2.52.36-3.46-.11-1.11-.54-2.64-1.79-2.65-2.74-.17-14.68-.08-29.36-.15-44,0-2.9,1.65-3,3.79-3,10.26,0,20.52,0,30.78,0h69.94v-9.56c0-7.53,0-15.07.06-22.6a3.34,3.34,0,0,1,1.09-2.57c.66-.33,2,.12,2.74.62,5.61,3.68,11.14,7.51,16.74,11.21q17.81,11.77,35.68,23.48c11,7.22,22.1,14.35,33.1,21.6,3.45,2.27,3.34,3.79,0,6-15,9.9-29.94,19.9-45,29.73-8.77,5.72-17.76,11.11-26.56,16.79-4.13,2.66-8,5.77-12.11,8.44-1.38.89-3.25,1-4.9,1.5a24.06,24.06,0,0,1-.84-4.37C401.05,482.9,401.08,472.9,401.08,462.52Z"/></svg>