<svg xmlns="http://www.w3.org/2000/svg" viewBox="0 0 675 675"><defs><style>.a{fill:#407cb6;}.b{fill:#fff;}.c{fill:#253458;}</style></defs><path class="a" d="M337.5,674.5A337,337,0,0,1,99.21,99.21,337,337,0,1,1,575.79,575.79,334.74,334.74,0,0,1,337.5,674.5Z"/><path class="b" d="M337.5,1a336.59,336.59,0,0,1,131,646.56,336.59,336.59,0,0,1-262-620.12A334.48,334.48,0,0,1,337.5,1m0-1C151.1,0,0,151.1,0,337.5S151.1,675,337.5,675,675,523.9,675,337.5,523.9,0,337.5,0Z"/><path class="b" d="M330.09,325.77c4.16,6.41,11.37,7.11,18.24,1.82l-12.46-19.48C328.1,312.68,325.94,319.35,330.09,325.77Z"/><path class="b" d="M598,326.21c-19.68-19.72-39.42-39.39-59-59.18a8.15,8.15,0,0,1-2.2-5.08c-.18-11.62-.07-23.24-.07-34.85q0-23.23,0-46.47c0-6.31-3.61-10.72-9.3-10.79q-21.57-.28-43.14-.06c-5.43.05-9.25,4.09-9.47,9.6-.16,3.76,0,7.52,0,11.28V201.8l-1.37.91a22.09,22.09,0,0,0-2.4-3.5q-63-63-126-126c-6.11-6.11-11-6.12-17.08,0L193.21,207.89q-59,59-118.07,118c-3.44,3.43-5.13,7.26-3.23,11.95s5.8,6.2,10.69,6.17c16.27-.1,32.53,0,48.79,0,1.08,0,2.16.1,3.42.17.07,1.18.17,2.14.17,3.11l0,176.58c0,8.08,3.71,11.79,11.74,11.8H526.48c7.56,0,11.51-3.89,11.51-11.42q0-75.84,0-151.69V344h3.87c16.38,0,32.75-.05,49.13,0,4.11,0,7.36-1.36,9.48-4.94C603,334.8,602.19,330.38,598,326.21Zm-187.89,9.45-7.67-11.14c9.31-6.25,17-13.74,19.69-25.18,3.58-15.46-.73-28.46-12.81-38.32-12.45-10.16-26.61-11.57-40.88-4.18-13.91,7.21-20.89,19.17-20.08,34.94.15,2.92,2.4,6.37,4.7,8.44,16.31,14.69,21.33,36.54,12.4,55.61S336.86,385.17,315,382c-1.89-.28-4.11-.47-5.79.23-6.3,2.63-12.44,5.65-20,9.16-.13,2.09-.41,6.37-.73,11.47L275,404c-.47,4.41-.95,8.87-1.47,13.71l-13.16.74c-5.17,25.13-9.65,27.44-43.42,21.26,0-8.23-.37-16.9.21-25.5.19-2.73,2.47-5.73,4.55-7.85,17.19-17.44,34.66-34.6,51.75-52.14,2.26-2.33,4.33-6.49,4-9.48-4-32.07,17.45-56,49.74-54.84,1.74.06,3.48,0,6.19,0,1.2-17.89,8.33-32.9,23.66-43.14a50,50,0,0,1,31.46-8.66c24,1.48,42.76,17.76,48.11,41.26C441.57,301.49,431,324.39,410.14,335.66Z"/><path class="c" d="M348.48,425.54l4.16,12.06-12.83,6.17c1.64,4.32,3.15,8.31,5,13.2l-12.05,5.82c.87,5.62,2.77,11,2.25,16.09-1,9.82-8.79,13-17.26,15.61-15.95,4.94-15.36,5-23.15-10-4.31-8.26-4.39-15.18-.58-23.64,8.84-19.6,16.53-39.72,25.07-59.45,1.13-2.6,4.32-5.74,6.87-6.05,37.88-4.62,58.78-30.16,55.59-68.49-.09-1.14,0-2.28,0-3.47,13.42,2.38,27.08,26.43,23.95,44.87-3.43,20.24-14.78,33.53-34.73,39.54-3.32,1-5.94,4.41-8.85,6.76C357.6,418.08,353.3,421.61,348.48,425.54Z"/></svg>