<svg xmlns="http://www.w3.org/2000/svg" xmlns:xlink="http://www.w3.org/1999/xlink" viewBox="0 0 658.17 658.17"><defs><style>.a{fill:url(#a);}.b{clip-path:url(#c);}.c{fill:url(#d);}.d{fill:#fff;}.e{fill:#253458;}</style><linearGradient id="a" y1="329.08" x2="658.17" y2="329.08" gradientUnits="userSpaceOnUse"><stop offset="0" stop-color="#0f78bd"/><stop offset="0" stop-color="#0d6dab"/><stop offset="0.37" stop-color="#0f7dc4"/><stop offset="1" stop-color="#1296eb"/></linearGradient><clipPath id="c"><path class="a" d="M132.54,0h393.1A132.54,132.54,0,0,1,658.17,132.54v393.1A132.54,132.54,0,0,1,525.63,658.17H132.53A132.53,132.53,0,0,1,0,525.64V132.54A132.54,132.54,0,0,1,132.54,0Z"/></clipPath><linearGradient id="d" x1="-398.4" y1="-1561.98" x2="-395.75" y2="-1561.98" gradientTransform="matrix(248.3, 0, 0, -248.3, 98921.98, -387508.46)" xlink:href="#a"/></defs><path class="a" d="M132.54,0h393.1A132.54,132.54,0,0,1,658.17,132.54v393.1A132.54,132.54,0,0,1,525.63,658.17H132.53A132.53,132.53,0,0,1,0,525.64V132.54A132.54,132.54,0,0,1,132.54,0Z"/><g class="b"><rect class="c" width="658.17" height="658.17"/></g><path class="d" d="M323.08,347.37c4.16,6.41,11.37,7.11,18.24,1.82l-12.46-19.48C321.09,334.29,318.93,341,323.08,347.37Z"/><path class="d" d="M591,347.81c-19.68-19.72-39.42-39.39-59-59.18a8.13,8.13,0,0,1-2.2-5.08c-.18-11.61-.07-23.23-.08-34.85q0-23.23,0-46.47c0-6.31-3.61-10.71-9.3-10.79q-21.57-.28-43.14-.05c-5.43.05-9.25,4.09-9.47,9.59-.16,3.76,0,7.53,0,11.29v11.14l-1.37.9a22,22,0,0,0-2.4-3.49q-63-63-126-126c-6.11-6.11-11-6.11-17.08,0L186.2,229.5q-59,59-118.07,118c-3.44,3.44-5.13,7.26-3.23,12s5.8,6.19,10.69,6.16c16.27-.1,32.53,0,48.79,0,1.08,0,2.16.11,3.42.17.07,1.18.17,2.15.17,3.11l0,176.58c0,8.08,3.71,11.8,11.74,11.8H519.47c7.56,0,11.51-3.89,11.51-11.41q0-75.86,0-151.69V365.6h3.87c16.38,0,32.75,0,49.13,0,4.11,0,7.36-1.36,9.48-4.94C596,356.4,595.18,352,591,347.81Zm-187.89,9.45-7.68-11.13c9.32-6.25,17.05-13.75,19.7-25.18,3.58-15.46-.73-28.47-12.81-38.33-12.45-10.16-26.61-11.57-40.88-4.17-13.91,7.2-20.89,19.16-20.08,34.94.15,2.92,2.4,6.36,4.7,8.43,16.31,14.7,21.33,36.54,12.39,55.62S329.85,406.77,308,403.62c-1.89-.27-4.11-.47-5.79.23-6.3,2.63-12.44,5.65-20,9.16-.13,2.09-.41,6.37-.74,11.47L268,425.61c-.48,4.4-.95,8.87-1.47,13.71l-13.16.73c-5.17,25.14-9.65,27.44-43.42,21.26,0-8.23-.37-16.9.21-25.5.19-2.72,2.47-5.72,4.55-7.84,17.19-17.45,34.66-34.61,51.75-52.15,2.26-2.32,4.33-6.49,4-9.48-4-32.06,17.45-56,49.74-54.84,1.74.06,3.48,0,6.19,0,1.2-17.89,8.33-32.9,23.66-43.15a50.09,50.09,0,0,1,31.46-8.66c24,1.48,42.76,17.76,48.11,41.26C434.56,323.09,424,346,403.13,357.26Z"/><path class="e" d="M341.47,447.14l4.16,12.06-12.83,6.17c1.64,4.32,3.15,8.32,5,13.2l-12.05,5.82c.87,5.62,2.77,11,2.25,16.09-1,9.83-8.79,13-17.26,15.62-15.95,4.94-15.36,5-23.15-10-4.32-8.27-4.39-15.19-.58-23.65,8.84-19.6,16.53-39.71,25.07-59.45,1.13-2.59,4.32-5.74,6.87-6.05,37.88-4.61,58.78-30.16,55.59-68.49-.09-1.13,0-2.28,0-3.47,13.42,2.38,27.08,26.43,23.95,44.87-3.43,20.24-14.78,33.54-34.73,39.55-3.32,1-5.94,4.41-8.85,6.75C350.59,439.69,346.29,443.21,341.47,447.14Z"/></svg>