<svg xmlns="http://www.w3.org/2000/svg" width="1354" height="220" style=""><rect id="backgroundrect" width="100%" height="100%" x="0" y="0" fill="none" stroke="none"/>
  <defs>
    <style>.cls-1{fill:#373535;}.cls-2{fill:#1c76b9;}</style>
  </defs>
  
<g class="currentLayer" style=""><title>Layer 1</title><g id="Layer_2" data-name="Layer 2" class="">
    <g id="Layer_1-2" data-name="Layer 1">
      <path class="cls-1" d="M644.5123810148239,77.12630190560992 C875.272381014824,51.0629655093926 1111.952381014824,-10.547229936621818 1352.442381014824,33.947659754850235 V10.181624966956946 C1133.5523810148238,-14.516411185167442 918.0023810148239,38.89380734572586 707.3723810148239,62.672105309464314 c-139.49,15.754093235731125 -293,25.478791680932044 -439,17.671236392855644 C176.4623810148239,75.43807136426148 74.74238101482392,58.32685333500086 0.9523810148239136,33.11376379738033 v32.472889637947084 c63.41,15.28809255361557 136.67,25.58098481297493 204.57,29.214972588419915 C351.4823810148239,102.6091813118237 505.0223810148239,92.88448286662276 644.5123810148239,77.12630190560992 z" id="svg_1"/>
      <path class="cls-2" d="M642.7523810148239,85.69826182136711 C503.2623810148239,101.45235505709826 349.7523810148239,111.1811412275809 203.75238101482392,103.36949821422274 C136.4923810148239,99.7722999663132 63.952381014823914,89.65109216878591 0.9523810148239136,74.57556132981955 L0.9523810148239136,174.35284773121055 L1352.342381014824,174.35284773121055 L1352.342381014824,174.26700550029454 L1352.442381014824,174.26700550029454 L1352.442381014824,42.842549967862965 C1111.342381014824,-2.281849416993282 874.0823810148239,59.56952182064231 642.7523810148239,85.69826182136711 z" id="svg_2"/>
    </g>
  </g></g></svg>