<svg width="26" height="26" viewBox="0 0 32 32" fill="none" xmlns="http://www.w3.org/2000/svg">
<path d="M17.1554 5.6665C13.8635 5.6665 11.3377 6.41233 9.48945 7.67103C7.63399 8.93464 6.5311 10.6686 6.01831 12.5085C5.50912 14.3355 5.58231 16.2582 6.04856 17.9499C6.4413 19.3749 7.12946 20.6933 8.0497 21.6695L6.80096 25.0635C6.32152 26.3666 7.71737 27.5655 8.93316 26.8949L13.3309 24.4692C14.548 24.7366 17.1623 25.1379 20.2819 24.5226C25.2929 23.5343 27.9355 18.7741 27.6446 14.385C27.4974 12.1632 26.6036 9.96717 24.8403 8.32631C23.0705 6.6795 20.5059 5.6665 17.1554 5.6665Z" stroke="#231F20" stroke-width="2"/>
<path d="M12 12H21.3333" stroke="#231F20" stroke-width="2" stroke-linecap="round" stroke-linejoin="round"/>
<path d="M12 17.3335H17.3333" stroke="#231F20" stroke-width="2" stroke-linecap="round" stroke-linejoin="round"/>
</svg>
