<svg xmlns="http://www.w3.org/2000/svg" xmlns:xlink="http://www.w3.org/1999/xlink" version="1.1" style="enable-background:new 0 0 512 512;" xml:space="preserve" width="512" height="512"><rect id="backgroundrect" width="100%" height="100%" x="0" y="0" fill="none" stroke="none"/>
















<g class="currentLayer" style=""><title>Layer 1</title><g id="svg_1" class="selected" fill="#009900" fill-opacity="1">
	<g id="svg_2" fill="#009900" fill-opacity="1">
		<path d="M256,0C114.509,0,0,114.497,0,256c0,141.491,114.497,256,256,256c141.491,0,256-114.497,256-256    C512,114.509,397.503,0,256,0z M391.514,186.065L227.509,350.07c-6.662,6.662-17.472,6.664-24.136,0l-82.887-82.887    c-6.665-6.665-6.665-17.471,0-24.136c6.664-6.665,17.471-6.665,24.136,0l70.82,70.819l151.938-151.938    c6.664-6.665,17.471-6.665,24.136,0C398.179,168.595,398.179,179.4,391.514,186.065z" id="svg_3" fill="#009900" fill-opacity="1"/>
	</g>
</g><g id="svg_4">
</g><g id="svg_5">
</g><g id="svg_6">
</g><g id="svg_7">
</g><g id="svg_8">
</g><g id="svg_9">
</g><g id="svg_10">
</g><g id="svg_11">
</g><g id="svg_12">
</g><g id="svg_13">
</g><g id="svg_14">
</g><g id="svg_15">
</g><g id="svg_16">
</g><g id="svg_17">
</g><g id="svg_18">
</g></g></svg>