<svg width="22" height="22" viewBox="0 0 22 22" fill="none" xmlns="http://www.w3.org/2000/svg">
<circle cx="11" cy="11" r="10" stroke="#1A76B9" stroke-width="2"/>
<mask id="path-2-inside-1_1252_3626" fill="white">
<path fill-rule="evenodd" clip-rule="evenodd" d="M4.92099 15.6368C4.24965 15.0215 4.24964 13.9785 4.92099 13.3632C6.52239 11.8956 8.6566 11 11 11C13.3434 11 15.4776 11.8956 17.079 13.3632C17.7503 13.9785 17.7503 15.0215 17.079 15.6368C15.4776 17.1044 13.3434 18 11 18C8.6566 18 6.52239 17.1044 4.92099 15.6368Z"/>
</mask>
<path d="M6.27227 14.8377C7.51932 13.6948 9.17622 13 11 13V9C8.13697 9 5.52545 10.0964 3.56971 11.8888L6.27227 14.8377ZM11 13C12.8237 13 14.4806 13.6948 15.7277 14.8377L18.4303 11.8888C16.4745 10.0964 13.863 9 11 9V13ZM15.7277 14.1623C14.4806 15.3052 12.8238 16 11 16V20C13.863 20 16.4745 18.9036 18.4303 17.1112L15.7277 14.1623ZM11 16C9.17622 16 7.51933 15.3052 6.27227 14.1623L3.56971 17.1112C5.52545 18.9036 8.13697 20 11 20V16ZM15.7277 14.8377C15.5341 14.6603 15.5341 14.3398 15.7277 14.1623L18.4303 17.1112C19.9666 15.7033 19.9666 13.2967 18.4303 11.8888L15.7277 14.8377ZM3.56971 11.8888C2.0334 13.2967 2.03341 15.7033 3.56971 17.1112L6.27227 14.1623C6.46589 14.3397 6.46589 14.6603 6.27227 14.8377L3.56971 11.8888Z" fill="#1A76B9" mask="url(#path-2-inside-1_1252_3626)"/>
<circle cx="11" cy="8" r="3" stroke="#1A76B9" stroke-width="2" stroke-linecap="round" stroke-linejoin="round"/>
</svg>
