<svg width="32" height="32" viewBox="0 0 32 32" fill="none" xmlns="http://www.w3.org/2000/svg">
<path d="M15.9999 26.6668C21.891 26.6668 26.6666 21.8912 26.6666 16.0002C26.6666 10.1091 21.891 5.3335 15.9999 5.3335C10.1089 5.3335 5.33325 10.1091 5.33325 16.0002C5.33325 21.8912 10.1089 26.6668 15.9999 26.6668Z" stroke="#231F20" stroke-width="2"/>
<path d="M17.8891 13.6071L14.2235 14.0665L14.0923 14.6759L14.8141 14.8071C15.2829 14.9196 15.3766 15.0884 15.2735 15.5571L14.0923 21.1071C13.7829 22.5415 14.261 23.2165 15.386 23.2165C16.2579 23.2165 17.2704 22.8134 17.7298 22.2603L17.8704 21.5946C17.5516 21.8759 17.0829 21.9884 16.7735 21.9884C16.3329 21.9884 16.1735 21.679 16.286 21.1353L17.8891 13.6071Z" fill="#231F20"/>
<path d="M18 10.2665C18 11.1502 17.2837 11.8665 16.4 11.8665C15.5163 11.8665 14.8 11.1502 14.8 10.2665C14.8 9.38285 15.5163 8.6665 16.4 8.6665C17.2837 8.6665 18 9.38285 18 10.2665Z" fill="#231F20"/>
</svg>
