<svg width="24" height="24" viewBox="0 0 24 24" fill="none" xmlns="http://www.w3.org/2000/svg">
<path d="M3 7C3 6.44772 3.44772 6 4 6H20C20.5523 6 21 6.44771 21 7C21 7.55228 20.5523 8 20 8L4 8C3.44772 8 3 7.55228 3 7Z" fill="#231F20"/>
<path d="M7 12C7 11.4477 7.44772 11 8 11L20 11C20.5523 11 21 11.4477 21 12C21 12.5523 20.5523 13 20 13L8 13C7.44772 13 7 12.5523 7 12Z" fill="#231F20"/>
<path d="M4 16C3.44772 16 3 16.4477 3 17C3 17.5523 3.44772 18 4 18L20 18C20.5523 18 21 17.5523 21 17C21 16.4477 20.5523 16 20 16L4 16Z" fill="#231F20"/>
<path d="M5 12C5 12.5523 4.55228 13 4 13C3.44772 13 3 12.5523 3 12C3 11.4477 3.44772 11 4 11C4.55228 11 5 11.4477 5 12Z" fill="#231F20"/>
</svg>
