<svg xmlns="http://www.w3.org/2000/svg" width="24" height="24"><rect id="backgroundrect" width="100%" height="100%" x="0" y="0" fill="none" stroke="none"/><g class="currentLayer" style=""><title>Layer 1</title><g data-name="Layer 2" id="svg_1" class="selected" fill="#009900" fill-opacity="1"><g data-name="plus-circle" id="svg_2" fill="#009900" fill-opacity="1"><rect width="24" height="24" opacity="0" id="svg_3" fill="#009900" fill-opacity="1"/><path d="M12 2a10 10 0 1 0 10 10A10 10 0 0 0 12 2zm3 11h-2v2a1 1 0 0 1-2 0v-2H9a1 1 0 0 1 0-2h2V9a1 1 0 0 1 2 0v2h2a1 1 0 0 1 0 2z" id="svg_4" fill="#009900" fill-opacity="1"/></g></g></g></svg>